<svg xmlns="http://www.w3.org/2000/svg" width="96" height="96" viewBox="0 0 96 96" fill="none">
  <defs>
    <linearGradient id="kabriosGradMark" x1="18" y1="16" x2="79" y2="82" gradientUnits="userSpaceOnUse">
      <stop stop-color="#2B6CB0"/>
      <stop offset="1" stop-color="#38B2AC"/>
    </linearGradient>
  </defs>
  <path d="M48 10L79 24V56C79 72 66 82 48 88C30 82 17 72 17 56V24L48 10Z" fill="url(#kabriosGradMark)"/>
  <circle cx="48" cy="47" r="20" stroke="white" stroke-width="6"/>
  <path d="M48 23C55 28 60 35 62 43" stroke="white" stroke-width="6" stroke-linecap="round"/>
  <path d="M34 61C29 57 25 51 24 44" stroke="white" stroke-width="6" stroke-linecap="round"/>
  <path d="M59 61C64 58 68 53 71 47" stroke="white" stroke-width="6" stroke-linecap="round"/>
  <circle cx="48" cy="47" r="5" fill="#0B1220"/>
  <path d="M48 52L44 66H52L48 52Z" fill="#0B1220"/>
</svg>
